<svg width="287" height="252" viewBox="0 0 287 252" fill="none" xmlns="http://www.w3.org/2000/svg">
<g clip-path="url(#clip0_766_2580)">
<path d="M46.1366 251.837C45.251 246.427 48.6484 237.552 57.0267 222.771C65.7902 207.313 72.5159 199.345 76.6244 181.285C79.2877 169.575 83.7221 159.762 89.0388 154.628C94.3423 149.514 100.284 144.031 101.746 144.131C108.156 162.018 149.261 180.553 179.831 155.399C183.327 152.521 185.026 148.879 185.249 146.889C189.733 152.352 203.326 171.708 195.208 201.804C194.559 204.209 193.756 206.439 192.838 208.533C185.391 225.536 170.346 233.405 167.834 251.495V251.548L92.1498 251.727L46.1366 251.837V251.837Z" fill="#F2E4CE"/>
<path d="M192.838 208.533C193.193 231.085 189.447 251.495 189.447 251.495L167.834 251.548V251.495C170.346 233.405 185.391 225.536 192.838 208.533V208.533Z" fill="#F2E4CE"/>
<path d="M174.863 129.194C172.871 130.514 170.702 132.019 168.193 133.328C162.775 126.273 158.126 128.055 154.64 130.613C152.763 129.477 149.415 129.274 143.496 134.342C141.537 133.587 139.598 132.783 137.38 132.148L137.327 132.006C148.382 127.938 156.994 127.174 156.908 115.643C158.143 126.167 164.434 126.19 174.238 128.746C174.468 128.806 174.695 128.862 174.922 128.912L174.863 129.194V129.194Z" fill="#231F20"/>
<path d="M167.578 94.5826C169.339 95.2074 171.024 95.9982 172.786 96.9419C175.623 98.4638 177.783 101.132 177.783 101.132L177.77 101.152C174.333 98.5702 170.833 96.0082 167.578 94.5826V94.5826Z" fill="#F2E4CE"/>
<path d="M154.64 130.613C158.126 128.055 162.775 126.273 168.193 133.328C165.257 134.863 161.859 136.136 157.754 136.538C151.367 137.166 147.397 135.85 143.496 134.342C149.415 129.274 152.763 129.477 154.64 130.613V130.613Z" fill="#F3DBFF"/>
<path d="M166.251 103.95C166.442 108.203 160.286 111.938 156.921 112.094C156.845 112.098 156.766 112.101 156.687 112.101H156.648C153.221 112.081 147.084 108.978 146.894 104.84C146.703 100.587 147.697 97.7527 156.256 97.3606C164.812 96.9685 166.06 99.6999 166.251 103.95V103.95Z" fill="#231F20"/>
<path d="M156.694 112.48C156.829 113.613 156.898 114.66 156.908 115.627C156.793 114.67 156.724 113.623 156.694 112.48Z" fill="#BAB9AF"/>
<path d="M156.694 112.48C156.681 112.354 156.664 112.227 156.648 112.101H156.687C156.691 112.227 156.691 112.354 156.694 112.48Z" fill="#231F20"/>
<path d="M155.009 92.9279C150.864 93.0674 147.006 93.5526 143.397 94.6126C151.121 91.7881 157.25 92.2001 164.542 93.5991C165.517 93.7852 166.527 94.1208 167.561 94.576C164.078 93.3399 160.292 92.7551 155.009 92.9279V92.9279Z" fill="#F2E4CE"/>
<path d="M143.397 94.6125C140.543 95.6559 137.472 97.1413 134.041 99.1816C136.958 97.0516 140.072 95.5895 143.397 94.6125Z" fill="#F2E4CE"/>
<path d="M101.743 132.577C108.139 150.468 147.42 173.213 177.454 147.989C180.548 145.39 182.998 142.712 184.084 137.854L184.199 137.88L185.249 146.889C185.026 148.879 183.327 152.521 179.831 155.399C149.261 180.553 108.156 162.018 101.746 144.131H101.759C102.941 141.466 101.608 135.049 101.743 132.577V132.577Z" fill="#4076FB"/>
<path d="M101.743 132.577C100.265 127.792 102.523 124.12 101.042 112.334C107.204 135.016 125.64 151.478 147.42 151.478C162.393 151.478 175.782 143.702 184.693 131.47C184.7 133.966 184.486 136.059 184.084 137.854C182.998 142.712 180.548 145.39 177.454 147.989C147.42 173.213 108.139 150.468 101.743 132.577V132.577Z" fill="#F2E4CE"/>
<path d="M156.908 115.627C156.898 114.66 156.829 113.613 156.694 112.48C156.691 112.354 156.691 112.227 156.687 112.101C156.767 112.101 156.846 112.098 156.921 112.095C160.286 111.938 166.442 108.203 166.251 103.95C166.06 99.7 164.812 96.9686 156.256 97.3607C147.697 97.7528 146.703 100.587 146.894 104.841C147.085 108.978 153.221 112.081 156.648 112.101C156.664 112.227 156.681 112.354 156.694 112.48C156.724 113.623 156.793 114.67 156.908 115.627V115.627ZM137.327 132.006L137.38 132.148C139.598 132.783 141.537 133.587 143.496 134.342C147.397 135.85 151.368 137.166 157.754 136.538C161.859 136.136 165.257 134.863 168.193 133.328C170.702 132.019 172.871 130.514 174.863 129.194L174.922 128.912C174.695 128.862 174.468 128.806 174.238 128.746C164.434 126.19 158.143 126.167 156.908 115.643C156.994 127.174 148.382 127.938 137.327 132.006ZM99.5471 102.431C98.645 93.33 111.267 83.3147 116.445 107.496C116.834 109.31 119.069 109.975 120.363 108.655C122.499 106.475 125.604 104.203 134.041 99.1817C137.472 97.1414 140.543 95.656 143.397 94.6126C147.006 93.5526 150.864 93.0675 155.009 92.9279C160.292 92.7551 164.078 93.3399 167.561 94.5761C167.564 94.5761 167.571 94.5794 167.578 94.5827C170.834 96.0082 174.333 98.5702 177.77 101.152C181.404 103.887 184.97 109.965 188.097 111.42C190.685 112.623 194.576 109.154 195.754 101.352C195.136 108.399 193.374 115.062 190.685 121.09C189.025 124.811 187.011 128.291 184.693 131.467C175.781 143.702 162.393 151.478 147.42 151.478C125.64 151.478 107.204 135.016 101.042 112.334C100.176 109.157 99.5537 105.861 99.1948 102.471L99.5471 102.431V102.431Z" fill="#BAB9AF"/>
<path d="M116.445 107.496C111.267 83.3146 98.645 93.3299 99.5471 102.431L99.1948 102.471C98.9611 100.248 98.8393 97.982 98.8393 95.6859C98.8393 91.4259 99.2574 87.2789 100.044 83.2947C100.087 83.082 100.13 82.8727 100.173 82.6633C100.278 77.5394 95.1423 75.9975 92.7687 71.5415C90.721 67.7068 89.1079 61.9216 82.853 49.3642C77.8754 39.3722 78.9321 13.8355 89.5589 10.26C93.1308 9.0571 97.6607 9.15014 102.27 11.8517C111.362 17.1817 120.755 28.8285 123.694 33.8162C128.125 41.3294 129.755 43.692 132.981 42.3661L132.991 42.3961C137.551 40.7678 142.397 39.8939 147.42 39.8939C151.298 39.8939 155.071 40.4156 158.686 41.3992V41.3759C162.248 42.4426 163.677 40.5784 167.808 32.1216C170.666 26.2699 179.09 13.7856 189.262 9.30632C194.843 6.84735 198.447 6.56823 202.823 8.13665C212.323 11.5493 211.935 34.6403 208.38 45.3003C203.919 58.6718 202.753 65.2445 201.295 70.0661C199.712 75.2864 194.052 79.0147 195.043 84.6837L195.01 84.6903C195.659 88.2325 196.001 91.9077 196.001 95.6859C196.001 97.5966 195.919 99.4873 195.754 101.351C194.576 109.154 190.685 112.623 188.097 111.42C184.97 109.965 181.404 103.887 177.77 101.152L177.783 101.132C177.783 101.132 175.623 98.4638 172.786 96.9419C171.024 95.9982 169.339 95.2074 167.578 94.5827C167.571 94.5793 167.564 94.576 167.561 94.576C166.527 94.1208 165.517 93.7852 164.542 93.5991C157.25 92.2001 151.121 91.7881 143.397 94.6126C140.072 95.5895 136.958 97.0516 134.041 99.1816C125.604 104.203 122.499 106.475 120.363 108.655C119.069 109.974 116.834 109.31 116.445 107.496V107.496Z" fill="#F2E4CE"/>
<path d="M184.693 131.467C187.011 128.29 189.025 124.811 190.685 121.09C193.374 115.062 195.136 108.399 195.754 101.351C195.919 99.4873 196.001 97.5965 196.001 95.6859C196.001 91.9077 195.659 88.2325 195.01 84.6903C192.696 71.9734 186.491 60.9214 178.323 52.634C174.679 48.9356 174.185 45.0345 174.922 41.7448" stroke="#231F20" stroke-width="2" stroke-linecap="round" stroke-linejoin="round"/>
<path d="M115.649 42.9443C117.466 47.8689 114.977 53.807 110.888 58.9077C105.624 65.4804 102.026 73.708 100.173 82.6633C100.13 82.8727 100.087 83.082 100.044 83.2947C99.2574 87.2789 98.8393 91.4259 98.8393 95.6859C98.8393 97.982 98.9611 100.248 99.1948 102.471C99.5537 105.861 100.176 109.157 101.042 112.334C107.204 135.016 125.64 151.478 147.42 151.478C162.393 151.478 175.781 143.702 184.693 131.471" stroke="#231F20" stroke-width="2" stroke-linecap="round" stroke-linejoin="round"/>
<path d="M132.991 42.3961C137.551 40.7679 142.397 39.8939 147.42 39.8939C151.298 39.8939 155.071 40.4156 158.686 41.3992" stroke="#231F20" stroke-width="2" stroke-linecap="round" stroke-linejoin="round"/>
<path d="M156.908 115.643C156.994 127.174 148.382 127.938 137.327 132.005C136.698 132.235 136.059 132.477 135.417 132.733C125.442 136.687 117.304 135.136 114.7 128.659C111.007 119.471 111.589 105.143 105.236 105.279" stroke="#231F20" stroke-width="2" stroke-linecap="round" stroke-linejoin="round"/>
<path d="M156.648 112.101C156.664 112.227 156.681 112.354 156.694 112.48C156.829 113.613 156.898 114.66 156.908 115.627" stroke="#231F20" stroke-width="2" stroke-linecap="round" stroke-linejoin="round"/>
<path d="M156.688 112.101C156.691 112.227 156.691 112.354 156.694 112.48C156.724 113.623 156.793 114.67 156.908 115.627V115.643C158.143 126.167 164.434 126.19 174.238 128.746C174.468 128.806 174.695 128.862 174.922 128.912C184.884 131.148 189.091 124.117 190.685 121.09" stroke="#231F20" stroke-width="2" stroke-linecap="round" stroke-linejoin="round"/>
<path d="M167.578 94.5826C169.339 95.2074 171.024 95.9982 172.786 96.9419C175.623 98.4638 177.783 101.132 177.783 101.132" stroke="#231F20" stroke-width="2" stroke-linecap="round" stroke-linejoin="round"/>
<path d="M134.041 99.1815C136.958 97.0515 140.072 95.5895 143.397 94.6125C147.006 93.5525 150.864 93.0674 155.009 92.9278C160.292 92.755 164.078 93.3398 167.561 94.576" stroke="#231F20" stroke-width="2" stroke-linecap="round" stroke-linejoin="round"/>
<path d="M156.648 112.101C153.221 112.081 147.084 108.978 146.894 104.84C146.703 100.587 147.697 97.7527 156.256 97.3606C164.812 96.9685 166.06 99.6999 166.251 103.95C166.442 108.203 160.286 111.938 156.921 112.094C156.845 112.098 156.766 112.101 156.687 112.101H156.648V112.101Z" stroke="#231F20" stroke-width="2" stroke-linecap="round" stroke-linejoin="round"/>
<path d="M132.981 42.3662C129.755 43.692 128.125 41.3294 123.694 33.8163C120.755 28.8285 111.362 17.1817 102.27 11.8517C97.6607 9.15015 93.1308 9.05711 89.5589 10.26C78.9321 13.8355 77.8754 39.3722 82.853 49.3642C89.1079 61.9216 90.721 67.7068 92.7687 71.5415C95.1423 75.9975 100.278 77.5394 100.173 82.6633C100.169 82.8727 100.153 83.0887 100.133 83.3113" stroke="#231F20" stroke-width="2" stroke-linecap="round" stroke-linejoin="round"/>
<path d="M158.689 41.3759C162.248 42.4426 163.677 40.5784 167.808 32.1216C170.666 26.2699 179.09 13.7856 189.263 9.30632C194.843 6.84735 198.447 6.56823 202.823 8.13665C212.323 11.5493 211.935 34.6403 208.38 45.3003C203.919 58.6718 202.753 65.2445 201.295 70.0661C199.712 75.2864 194.052 79.0147 195.043 84.6837C195.07 84.8332 195.099 84.986 195.136 85.1389" stroke="#231F20" stroke-width="2" stroke-linecap="round" stroke-linejoin="round"/>
<path d="M146.163 89.1962C152.2 87.2025 157.119 87.0496 162.073 88.3954" stroke="#231F20" stroke-width="2" stroke-linecap="round" stroke-linejoin="round"/>
<path d="M149.461 83.8761C152.747 81.8824 155.749 82.3941 158.445 83.7399" stroke="#231F20" stroke-width="2" stroke-linecap="round" stroke-linejoin="round"/>
<path d="M117.667 78.3369C118.421 73.5817 122.736 68.0923 128.168 66.7598" stroke="#231F20" stroke-width="2" stroke-linecap="round" stroke-linejoin="round"/>
<path d="M176.074 64.8125C180.726 65.8825 185.872 70.5877 186.833 76.1437" stroke="#231F20" stroke-width="2" stroke-linecap="round" stroke-linejoin="round"/>
<path d="M137.38 132.148C139.598 132.783 141.537 133.587 143.496 134.342C147.397 135.85 151.368 137.166 157.754 136.538C161.859 136.136 165.257 134.863 168.193 133.328C170.702 132.019 172.871 130.514 174.863 129.194" stroke="#231F20" stroke-width="2" stroke-linecap="round" stroke-linejoin="round"/>
<path d="M149.988 144.802C152.701 145.234 157.517 144.437 160.921 141.476" stroke="#231F20" stroke-width="2" stroke-linecap="round" stroke-linejoin="round"/>
<path d="M189.447 251.495C189.447 251.495 193.193 231.085 192.838 208.533C192.838 208.443 192.834 208.353 192.834 208.263" stroke="#231F20" stroke-width="2" stroke-linecap="round" stroke-linejoin="round"/>
<path d="M101.029 112.237C101.032 112.271 101.038 112.304 101.042 112.334C102.523 124.12 100.265 127.792 101.743 132.577C101.608 135.049 102.941 141.466 101.759 144.131H101.746C100.284 144.031 94.3423 149.514 89.0388 154.628C83.7221 159.762 79.2877 169.575 76.6244 181.285C72.5159 199.345 65.7902 207.313 57.0267 222.771C48.6484 237.552 45.251 246.427 46.1366 251.837" stroke="#231F20" stroke-width="2" stroke-linecap="round" stroke-linejoin="round"/>
<path d="M160.358 210.978C160.358 210.978 158.245 213.949 156.371 214.939C156.319 213.251 155.43 212.291 155.43 212.291C155.43 212.291 153.471 215.039 150.462 216.056C150.205 215.046 149.099 213.77 149.099 213.77C149.099 213.77 147.285 215.301 145.695 215.996C145.359 214.6 144.8 214.039 144.8 214.039" stroke="#231F20" stroke-width="2" stroke-linecap="round" stroke-linejoin="round"/>
<path d="M178.939 196.587C178.856 198.963 176.733 200.335 176.733 200.335L174.843 198.923C174.843 198.923 174.28 202.189 172.552 203.754C171.173 202.435 169.527 202.272 169.527 202.272" stroke="#231F20" stroke-width="2" stroke-linecap="round" stroke-linejoin="round"/>
<path d="M101.743 132.577C108.139 150.468 147.42 173.213 177.454 147.989C180.548 145.39 182.998 142.712 184.084 137.854C184.486 136.059 184.7 133.966 184.693 131.47" stroke="#231F20" stroke-width="2" stroke-linecap="round" stroke-linejoin="round"/>
<path d="M101.743 144.121V144.131C108.153 162.018 149.257 180.553 179.827 155.399C183.324 152.521 185.022 148.879 185.246 146.889L184.196 137.88" stroke="#231F20" stroke-width="2" stroke-linecap="round" stroke-linejoin="round"/>
<path d="M185.249 146.889C189.733 152.352 203.326 171.708 195.208 201.804C194.559 204.209 193.756 206.439 192.838 208.533C185.391 225.536 170.346 233.405 167.834 251.495" stroke="#231F20" stroke-width="2" stroke-linecap="round" stroke-linejoin="round"/>
<path d="M94.4543 179.138C89.3417 185.973 91.261 196.843 90.7013 199.601C85.9937 222.791 90.6223 241.164 92.1498 251.727L92.1597 251.797" stroke="#231F20" stroke-width="2" stroke-linecap="round" stroke-linejoin="round"/>
<path d="M123.948 211.723C123.52 222.333 118.091 241.968 118.809 251.495" stroke="#231F20" stroke-width="2" stroke-linecap="round" stroke-linejoin="round"/>
<path d="M148.158 46.6859C153.952 56.0765 154.344 75.6984 154.344 75.6984" stroke="#231F20" stroke-width="2" stroke-linecap="round" stroke-linejoin="round"/>
<path d="M142.061 114.806C141.956 115.637 142.472 115.743 142.472 115.743" stroke="#231F20" stroke-width="2" stroke-linecap="round" stroke-linejoin="round"/>
<path d="M134.657 115.743C134.555 116.574 135.068 116.677 135.068 116.677" stroke="#231F20" stroke-width="2" stroke-linecap="round" stroke-linejoin="round"/>
<path d="M128.221 119.741C128.119 120.571 128.633 120.674 128.633 120.674" stroke="#231F20" stroke-width="2" stroke-linecap="round" stroke-linejoin="round"/>
<path d="M133.264 124.19C133.159 125.021 133.676 125.124 133.676 125.124" stroke="#231F20" stroke-width="2" stroke-linecap="round" stroke-linejoin="round"/>
<path d="M139.641 121.784C139.539 122.615 140.053 122.718 140.053 122.718" stroke="#231F20" stroke-width="2" stroke-linecap="round" stroke-linejoin="round"/>
<path d="M169.754 113.643C169.849 114.474 169.382 114.58 169.382 114.58" stroke="#231F20" stroke-width="2" stroke-linecap="round" stroke-linejoin="round"/>
<path d="M176.46 114.58C176.555 115.411 176.088 115.514 176.088 115.514" stroke="#231F20" stroke-width="2" stroke-linecap="round" stroke-linejoin="round"/>
<path d="M182.293 118.578C182.385 119.408 181.921 119.511 181.921 119.511" stroke="#231F20" stroke-width="2" stroke-linecap="round" stroke-linejoin="round"/>
<path d="M177.724 123.027C177.819 123.858 177.352 123.961 177.352 123.961" stroke="#231F20" stroke-width="2" stroke-linecap="round" stroke-linejoin="round"/>
<path d="M171.946 120.621C172.038 121.452 171.571 121.555 171.571 121.555" stroke="#231F20" stroke-width="2" stroke-linecap="round" stroke-linejoin="round"/>
<path d="M143.496 134.341C149.415 129.274 152.763 129.477 154.64 130.613C155.298 131.012 155.776 131.527 156.121 131.969" stroke="#231F20" stroke-width="2" stroke-linecap="round" stroke-linejoin="round"/>
<path d="M168.193 133.328C162.775 126.273 158.126 128.055 154.64 130.613" stroke="#231F20" stroke-width="2" stroke-linecap="round" stroke-linejoin="round"/>
<path d="M204.166 30.8655C204.706 34.4941 203.985 38.3055 203.985 38.3055" stroke="#231F20" stroke-width="2" stroke-linecap="round" stroke-linejoin="round"/>
<path d="M86.6916 24.5353C85.7698 28.4829 85.8686 33.577 85.8686 33.577" stroke="#231F20" stroke-width="2" stroke-linecap="round" stroke-linejoin="round"/>
<path d="M154.66 192.772C159.414 192.772 163.268 187.802 163.268 181.67C163.268 175.539 159.414 170.568 154.66 170.568C149.905 170.568 146.051 175.539 146.051 181.67C146.051 187.802 149.905 192.772 154.66 192.772Z" fill="#37D096" stroke="#231F20" stroke-width="2" stroke-linecap="round" stroke-linejoin="round"/>
<path d="M154.077 171.715C155.415 171.715 156.5 170.45 156.5 168.89C156.5 167.33 155.415 166.066 154.077 166.066C152.739 166.066 151.654 167.33 151.654 168.89C151.654 170.45 152.739 171.715 154.077 171.715Z" stroke="#231F20" stroke-width="2" stroke-linecap="round" stroke-linejoin="round"/>
<path d="M179.895 91.5207C182.581 91.3658 184.565 87.821 184.327 83.6032C184.088 79.3855 181.717 76.0919 179.03 76.2468C176.344 76.4017 174.359 79.9465 174.598 84.1643C174.837 88.382 177.208 91.6756 179.895 91.5207Z" fill="#231F20" stroke="#231F20" stroke-width="2" stroke-linecap="round" stroke-linejoin="round"/>
<path d="M170.251 81.7264L177.72 83.5607L168.72 85.9599L170.251 81.7264Z" fill="#F2E4CE" stroke="#F2E4CE" stroke-width="2" stroke-linecap="round" stroke-linejoin="round"/>
<path d="M125.975 93.1869C128.661 93.032 130.646 89.4872 130.407 85.2695C130.168 81.0517 127.797 77.7581 125.11 77.9131C122.424 78.068 120.44 81.6128 120.678 85.8305C120.917 90.0483 123.288 93.3419 125.975 93.1869Z" fill="#231F20" stroke="#231F20" stroke-width="2" stroke-linecap="round" stroke-linejoin="round"/>
<path d="M116.327 83.3945L123.8 85.2255L114.799 87.6246L116.327 83.3945Z" fill="#F2E4CE" stroke="#F2E4CE" stroke-width="2" stroke-linecap="round" stroke-linejoin="round"/>
<path d="M129.06 202.754C129.788 204.844 129.06 206.313 129.06 206.313L131.967 203.562C131.967 203.562 133.419 206.861 134.509 205.761C135.598 204.662 137.416 205.579 137.416 205.579" stroke="#231F20" stroke-width="2" stroke-linecap="round" stroke-linejoin="round"/>
<path d="M102.108 98.1151C106.918 96.0516 110.411 101.162 111.418 103.066" stroke="#231F20" stroke-width="2" stroke-linecap="round" stroke-linejoin="round"/>
<path d="M103.955 92.7851C107.257 91.7982 109.585 93.772 110.194 95.0081" stroke="#231F20" stroke-width="2" stroke-linecap="round" stroke-linejoin="round"/>
<path d="M119.872 100.119C121.989 94.7158 130.338 89.6948 135.849 89.4523Z" fill="#F2E4CE"/>
<path d="M119.872 100.119C121.989 94.7158 130.338 89.6948 135.849 89.4523" stroke="#231F20" stroke-width="2" stroke-linecap="round" stroke-linejoin="round"/>
<path d="M124.056 99.4243L123.806 97.0817L130.328 92.506L132.85 91.8447L131.003 96.3872L126.786 99.4542L124.056 99.4243Z" fill="#F2E4CE"/>
<path d="M185.934 97.8493C183.426 92.619 174.738 88.2327 169.22 88.4022Z" fill="#F2E4CE"/>
<path d="M185.934 97.8493C183.426 92.619 174.738 88.2327 169.22 88.4022" stroke="#231F20" stroke-width="2" stroke-linecap="round" stroke-linejoin="round"/>
<path d="M181.71 97.4672L181.789 95.1145L174.952 91.034L172.387 90.5654L174.563 94.955L178.991 97.6998L181.71 97.4672Z" fill="#F2E4CE"/>
</g>
<defs>
<clipPath id="clip0_766_2580">
<rect width="167" height="247" fill="white" transform="translate(44 5)"/>
</clipPath>
</defs>
</svg>
