<svg width="317" height="357" viewBox="0 0 317 357" fill="none" xmlns="http://www.w3.org/2000/svg">
<rect width="317" height="357" fill="#BDEFFF"/>
<path d="M86.484 166.942L87.3729 166.867C87.3729 148.819 111.373 149.042 111.891 163.079C113.373 157.954 117.817 156.915 121.076 161.074C124.336 165.233 122.336 178.083 122.336 178.083C122.336 178.083 86.8544 181.796 73.2989 181.648C66.41 181.573 71.5211 169.467 77.5951 173.998C77.5211 168.724 82.7062 165.605 86.484 166.942V166.942Z" fill="white"/>
<path d="M87.3729 166.867C87.3729 148.819 111.373 149.042 111.891 163.079C113.373 157.954 117.817 156.915 121.076 161.074C124.336 165.233 122.336 178.083 122.336 178.083C122.336 178.083 86.8544 181.796 73.2989 181.648C66.41 181.573 71.5211 169.467 77.5951 173.998" stroke="#231F20" stroke-width="1.5" stroke-linecap="round" stroke-linejoin="round"/>
<path d="M77.9655 175.929C77.8173 175.26 77.7432 174.666 77.6692 174.072C77.4469 168.724 82.7062 165.605 86.484 166.942C87.4469 167.313 88.3358 167.907 89.0025 168.873" stroke="#231F20" stroke-width="1.5" stroke-linecap="round" stroke-linejoin="round"/>
<path d="M233.002 123.715C233.002 135.301 232.261 204.672 232.261 204.672L132.928 184.47C132.928 184.47 131.076 149.71 129.817 120.818C129.447 112.574 129.817 107.374 139.817 107.226C150.558 107.077 214.483 107.226 222.039 107.077C229.52 106.78 233.002 112.054 233.002 123.715V123.715ZM226.558 197.468C226.558 196.8 227.298 135.078 227.298 123.64C227.298 116.361 225.743 114.133 225.15 113.465C224.928 113.242 224.261 112.574 222.187 112.648C218.335 112.722 200.78 112.722 182.113 112.722C163.447 112.722 145.224 112.722 139.891 112.796C137.15 112.871 136.113 113.316 135.965 113.539C135.447 114.059 135.299 116.436 135.447 120.447C136.706 148.967 138.558 179.642 138.558 180.014L226.558 197.468Z" fill="#231F20"/>
<path d="M232.187 204.598C232.706 211.283 231.743 214.105 228.335 217.373C223.298 222.127 196.335 242.775 191.447 246.785C186.558 250.87 182.484 251.093 177.891 249.979C173.298 248.791 77.5951 224.801 77.5951 224.801C72.0396 223.166 73.447 216.259 73.447 216.259L73.7433 216.036C74.41 216.853 75.2988 217.447 76.5581 217.819C76.5581 217.819 172.261 241.809 176.854 242.997C181.447 244.186 185.521 243.889 190.41 239.804C195.298 235.719 223.595 214.551 228.632 209.723C230.409 208.089 231.595 206.455 232.187 204.598V204.598Z" fill="#E2E2E2"/>
<path d="M132.854 184.396L232.187 204.598C231.52 206.455 230.409 208.089 228.557 209.797C223.52 214.625 195.224 235.793 190.335 239.878C185.447 243.888 181.372 244.186 176.78 243.071C172.187 241.883 76.484 217.893 76.484 217.893C75.2247 217.521 74.3359 216.853 73.6692 216.11L132.854 184.396V184.396ZM182.335 234.827L215.446 208.831L132.336 192.714L91.595 214.179L182.335 234.827Z" fill="#E2E2E2"/>
<path d="M227.298 123.714C227.298 135.153 226.558 196.799 226.558 197.542L138.558 180.162C138.558 179.791 136.706 149.116 135.447 120.595C135.299 116.51 135.447 114.207 135.965 113.688C136.113 113.465 137.225 113.019 139.891 112.945C145.225 112.871 163.965 112.871 182.113 112.871C200.261 112.871 218.335 112.871 222.187 112.796C224.261 112.722 224.928 113.39 225.15 113.613C225.743 114.133 227.298 116.436 227.298 123.714V123.714Z" fill="#F1E332"/>
<path d="M215.372 208.832L182.335 234.827L91.5951 214.105L132.262 192.64L215.372 208.832Z" fill="#C6C6C6"/>
<path d="M232.187 204.598C232.706 211.283 231.743 214.105 228.335 217.373C223.298 222.127 196.335 242.775 191.447 246.785C186.558 250.87 182.484 251.093 177.891 249.979C173.298 248.791 77.5951 224.801 77.5951 224.801C72.0396 223.166 73.447 216.259 73.447 216.259" stroke="#231F20" stroke-width="1.5" stroke-linecap="round" stroke-linejoin="round"/>
<path d="M132.854 184.396C132.854 184.396 131.002 149.636 129.743 120.744C129.373 112.499 129.743 107.3 139.743 107.152C150.484 107.003 214.41 107.152 221.965 107.003C229.521 106.855 233.002 112.128 233.002 123.715C233.002 135.301 232.261 204.673 232.261 204.673C231.595 206.529 230.484 208.163 228.632 209.872C223.595 214.699 195.298 235.867 190.41 239.952C185.521 243.963 181.447 244.26 176.854 243.146C172.262 241.958 76.5582 217.967 76.5582 217.967C75.299 217.596 74.4101 216.928 73.7434 216.185L132.854 184.396L232.187 204.598" stroke="#231F20" stroke-width="1.5" stroke-linecap="round" stroke-linejoin="round"/>
<path d="M226.558 197.468C226.558 196.8 227.298 135.078 227.298 123.64C227.298 116.361 225.743 114.133 225.15 113.465C224.928 113.242 224.261 112.574 222.187 112.648C218.335 112.722 200.78 112.722 182.113 112.722C163.447 112.722 145.225 112.722 139.891 112.796C137.15 112.871 136.113 113.316 135.965 113.539C135.447 114.059 135.299 116.436 135.447 120.447C136.706 148.967 138.558 179.642 138.558 180.014L226.558 197.468Z" stroke="#231F20" stroke-width="1.5" stroke-linecap="round" stroke-linejoin="round"/>
<path d="M91.5951 214.105L182.335 234.827L215.372 208.832L132.262 192.64L91.5951 214.105Z" stroke="#231F20" stroke-width="1.5" stroke-linecap="round" stroke-linejoin="round"/>
<path d="M132.854 184.396C132.854 184.396 131.002 149.636 129.743 120.744C129.373 112.499 129.743 107.3 139.743 107.152C150.484 107.003 214.41 107.152 221.965 107.003C229.521 106.855 232.928 112.054 232.928 123.715C232.928 135.376 232.187 204.673 232.187 204.673" stroke="#231F20" stroke-width="1.5" stroke-linecap="round" stroke-linejoin="round"/>
<path d="M190.261 127.205C193.817 112.351 209.669 118.812 207.891 130.102C207.891 130.102 209.372 127.725 211.817 127.577C215.076 127.354 217.076 130.325 215.002 134.41C215.002 134.41 220.854 134.336 220.78 138.569C220.78 140.426 218.632 141.614 216.78 141.614H193.891L184.187 135.524C180.187 129.731 187.595 123.492 192.039 128.691" fill="white"/>
<path d="M190.261 127.205C193.817 112.351 209.669 118.812 207.891 130.102C207.891 130.102 209.372 127.725 211.817 127.577C215.076 127.354 217.076 130.325 215.002 134.41C215.002 134.41 220.854 134.336 220.78 138.569C220.78 140.426 218.632 141.614 216.78 141.614H193.891L184.187 135.524C180.187 129.731 187.595 123.492 192.039 128.691" stroke="#231F20" stroke-width="1.5" stroke-linecap="round" stroke-linejoin="round"/>
<mask id="mask0_1184_2002" style="mask-type:alpha" maskUnits="userSpaceOnUse" x="95" y="118" width="127" height="102">
<path d="M221.484 195.389L182.224 187.59L172.224 185.733H154.447L160.373 212.1L107.04 219.527L95.9285 199.102L104.077 133.37L151.484 118.516L218.891 130.771L221.484 195.389Z" fill="#D9D9D9"/>
</mask>
<g mask="url(#mask0_1184_2002)">
<path d="M217.224 194.869V195.017C217.224 195.611 217.224 201.108 216.854 207.124L206.187 206.455C206.558 200.662 206.558 195.314 206.558 195.091V194.943C206.484 187.887 205.891 181.351 204.78 175.409C200.854 153.721 184.928 139.089 165.225 139.089C145.521 139.089 129.595 153.647 125.669 175.409C124.558 181.351 123.965 187.887 123.891 194.943V195.091C123.891 197.542 124.114 205.267 124.336 207.495L124.558 208.461C116.78 210.466 113.447 208.683 113.447 208.683C113.077 201.182 113.225 195.686 113.225 195.091V194.943C113.299 187.218 113.965 180.014 115.151 173.552C117.521 160.554 123.447 149.413 132.336 141.317C141.373 133.073 153.002 128.542 165.225 128.542C177.447 128.542 189.076 133.073 198.113 141.317C207.002 149.488 212.928 160.629 215.298 173.552C216.484 179.94 217.15 187.144 217.224 194.869V194.869Z" fill="#FF6E1D"/>
<path d="M206.558 194.943V195.092C206.558 195.314 206.558 200.662 206.187 206.455L195.521 205.787C195.891 200.291 195.891 195.092 195.891 195.092C195.817 189.967 195.447 183.653 194.335 177.34C191.373 160.852 179.669 149.785 165.299 149.785C150.928 149.785 139.225 160.852 136.262 177.34C135.15 183.653 134.78 190.041 134.706 195.092C134.706 195.092 134.632 201.182 135.002 205.193C133.447 205.564 131.669 206.084 129.743 206.827C127.891 207.495 126.262 208.015 124.706 208.386L124.484 207.421C124.262 205.193 124.039 197.543 124.039 195.017V194.869C124.114 187.813 124.706 181.277 125.817 175.335C129.743 153.647 145.669 139.015 165.373 139.015C185.076 139.015 201.002 153.573 204.928 175.335C205.891 181.277 206.484 187.887 206.558 194.943V194.943Z" fill="white"/>
<path d="M195.891 195.091C195.891 195.091 195.891 200.291 195.521 205.787L184.854 205.118C185.15 200.365 185.15 195.76 185.15 195.166C185.076 189.372 184.632 184.025 183.743 179.271C181.669 167.907 174.41 160.554 165.151 160.554C155.891 160.554 148.632 167.907 146.558 179.271C145.669 184.025 145.225 189.372 145.151 195.166C145.151 195.686 145.373 200.291 145.521 205.118C145.521 205.118 142.336 203.41 134.854 205.267C134.484 201.256 134.558 195.166 134.558 195.166C134.632 190.041 135.002 183.728 136.114 177.414C139.077 160.926 150.78 149.859 165.151 149.859C179.521 149.859 191.224 160.926 194.187 177.414C195.521 183.579 195.891 189.966 195.891 195.091V195.091Z" fill="#1479FB"/>
<path d="M124.41 207.421C124.188 205.193 123.965 197.543 123.965 195.018V194.869C124.04 187.813 124.632 181.277 125.743 175.335C129.669 153.647 145.595 139.016 165.299 139.016" stroke="#231F20" stroke-width="1.5" stroke-linecap="round" stroke-linejoin="round"/>
<path d="M165.299 160.48C156.113 160.48 148.78 167.833 146.706 179.197C145.817 183.95 145.373 189.298 145.299 195.091C145.299 195.611 145.521 200.216 145.669 205.044C145.669 205.044 142.484 203.336 135.002 205.193C133.447 205.564 131.669 206.084 129.743 206.827C127.891 207.495 126.262 208.015 124.706 208.386C116.928 210.392 113.595 208.609 113.595 208.609C113.225 201.108 113.373 195.611 113.373 195.017V194.869C113.447 187.144 114.114 179.94 115.299 173.478C117.669 160.48 123.595 149.339 132.484 141.243C141.521 132.999 153.151 128.468 165.373 128.468" stroke="#231F20" stroke-width="1.5" stroke-linecap="round" stroke-linejoin="round"/>
<path d="M165.299 149.785C150.928 149.785 139.225 160.851 136.262 177.34C135.151 183.653 134.78 190.041 134.706 195.091C134.706 195.091 134.632 201.182 135.002 205.193" stroke="#231F20" stroke-width="1.5" stroke-linecap="round" stroke-linejoin="round"/>
<path d="M206.187 206.456C206.558 200.662 206.558 195.315 206.558 195.092V194.943C206.484 187.887 205.891 181.351 204.78 175.41C200.854 153.722 184.928 139.09 165.224 139.09" stroke="#231F20" stroke-width="1.5" stroke-linecap="round" stroke-linejoin="round"/>
<path d="M165.299 160.48C174.484 160.48 181.817 167.833 183.891 179.197C184.78 183.951 185.224 189.298 185.299 195.092C185.299 195.611 185.299 200.291 185.002 205.044L195.669 205.713L206.335 206.381L217.002 207.05C217.372 201.033 217.372 195.611 217.372 194.943V194.794C217.298 187.07 216.632 179.865 215.447 173.404C213.076 160.406 207.15 149.265 198.261 141.169C189.224 132.925 177.595 128.394 165.373 128.394" stroke="#231F20" stroke-width="1.5" stroke-linecap="round" stroke-linejoin="round"/>
<path d="M165.299 149.785C179.669 149.785 191.373 160.851 194.336 177.34C195.447 183.653 195.817 190.041 195.891 195.091C195.891 195.091 195.891 200.291 195.521 205.787" stroke="#231F20" stroke-width="1.5" stroke-linecap="round" stroke-linejoin="round"/>
</g>
<mask id="mask1_1184_2002" style="mask-type:alpha" maskUnits="userSpaceOnUse" x="95" y="118" width="127" height="102">
<path d="M221.484 195.389L182.224 187.59L172.224 185.733H154.447L160.373 212.1L107.04 219.527L95.9285 199.102L104.077 133.37L151.484 118.516L218.891 130.771L221.484 195.389Z" fill="#D9D9D9"/>
</mask>
<g mask="url(#mask1_1184_2002)">
<path d="M217.224 194.869V195.017C217.224 195.611 217.224 201.108 216.854 207.124L206.187 206.455C206.558 200.662 206.558 195.314 206.558 195.091V194.943C206.484 187.887 205.891 181.351 204.78 175.409C200.854 153.721 184.928 139.089 165.225 139.089C145.521 139.089 129.595 153.647 125.669 175.409C124.558 181.351 123.965 187.887 123.891 194.943V195.091C123.891 197.542 124.114 205.267 124.336 207.495L124.558 208.461C116.78 210.466 113.447 208.683 113.447 208.683C113.077 201.182 113.225 195.686 113.225 195.091V194.943C113.299 187.218 113.965 180.014 115.151 173.552C117.521 160.554 123.447 149.413 132.336 141.317C141.373 133.073 153.002 128.542 165.225 128.542C177.447 128.542 189.076 133.073 198.113 141.317C207.002 149.488 212.928 160.629 215.298 173.552C216.484 179.94 217.15 187.144 217.224 194.869V194.869Z" fill="#FF6E1D"/>
<path d="M206.558 194.943V195.092C206.558 195.314 206.558 200.662 206.187 206.455L195.521 205.787C195.891 200.291 195.891 195.092 195.891 195.092C195.817 189.967 195.447 183.653 194.335 177.34C191.373 160.852 179.669 149.785 165.299 149.785C150.928 149.785 139.225 160.852 136.262 177.34C135.15 183.653 134.78 190.041 134.706 195.092C134.706 195.092 134.632 201.182 135.002 205.193C133.447 205.564 131.669 206.084 129.743 206.827C127.891 207.495 126.262 208.015 124.706 208.386L124.484 207.421C124.262 205.193 124.039 197.543 124.039 195.017V194.869C124.114 187.813 124.706 181.277 125.817 175.335C129.743 153.647 145.669 139.015 165.373 139.015C185.076 139.015 201.002 153.573 204.928 175.335C205.891 181.277 206.484 187.887 206.558 194.943V194.943Z" fill="white"/>
<path d="M195.891 195.091C195.891 195.091 195.891 200.291 195.521 205.787L184.854 205.118C185.15 200.365 185.15 195.76 185.15 195.166C185.076 189.372 184.632 184.025 183.743 179.271C181.669 167.907 174.41 160.554 165.151 160.554C155.891 160.554 148.632 167.907 146.558 179.271C145.669 184.025 145.225 189.372 145.151 195.166C145.151 195.686 145.373 200.291 145.521 205.118C145.521 205.118 142.336 203.41 134.854 205.267C134.484 201.256 134.558 195.166 134.558 195.166C134.632 190.041 135.002 183.728 136.114 177.414C139.077 160.926 150.78 149.859 165.151 149.859C179.521 149.859 191.224 160.926 194.187 177.414C195.521 183.579 195.891 189.966 195.891 195.091V195.091Z" fill="#1479FB"/>
<path d="M124.41 207.421C124.188 205.193 123.965 197.543 123.965 195.018V194.869C124.04 187.813 124.632 181.277 125.743 175.335C129.669 153.647 145.595 139.016 165.299 139.016" stroke="#231F20" stroke-width="1.5" stroke-linecap="round" stroke-linejoin="round"/>
<path d="M165.299 160.48C156.113 160.48 148.78 167.833 146.706 179.197C145.817 183.95 145.373 189.298 145.299 195.091C145.299 195.611 145.521 200.216 145.669 205.044C145.669 205.044 142.484 203.336 135.002 205.193C133.447 205.564 131.669 206.084 129.743 206.827C127.891 207.495 126.262 208.015 124.706 208.386C116.928 210.392 113.595 208.609 113.595 208.609C113.225 201.108 113.373 195.611 113.373 195.017V194.869C113.447 187.144 114.114 179.94 115.299 173.478C117.669 160.48 123.595 149.339 132.484 141.243C141.521 132.999 153.151 128.468 165.373 128.468" stroke="#231F20" stroke-width="1.5" stroke-linecap="round" stroke-linejoin="round"/>
<path d="M165.299 149.785C150.928 149.785 139.225 160.851 136.262 177.34C135.151 183.653 134.78 190.041 134.706 195.091C134.706 195.091 134.632 201.182 135.002 205.193" stroke="#231F20" stroke-width="1.5" stroke-linecap="round" stroke-linejoin="round"/>
<path d="M206.187 206.456C206.558 200.662 206.558 195.315 206.558 195.092V194.943C206.484 187.887 205.891 181.351 204.78 175.41C200.854 153.722 184.928 139.09 165.224 139.09" stroke="#231F20" stroke-width="1.5" stroke-linecap="round" stroke-linejoin="round"/>
<path d="M165.299 160.48C174.484 160.48 181.817 167.833 183.891 179.197C184.78 183.951 185.224 189.298 185.299 195.092C185.299 195.611 185.299 200.291 185.002 205.044L195.669 205.713L206.335 206.381L217.002 207.05C217.372 201.033 217.372 195.611 217.372 194.943V194.794C217.298 187.07 216.632 179.865 215.447 173.404C213.076 160.406 207.15 149.265 198.261 141.169C189.224 132.925 177.595 128.394 165.373 128.394" stroke="#231F20" stroke-width="1.5" stroke-linecap="round" stroke-linejoin="round"/>
<path d="M165.299 149.785C179.669 149.785 191.373 160.851 194.336 177.34C195.447 183.653 195.817 190.041 195.891 195.091C195.891 195.091 195.891 200.291 195.521 205.787" stroke="#231F20" stroke-width="1.5" stroke-linecap="round" stroke-linejoin="round"/>
</g>
</svg>
